<?xml version="1.0" encoding="UTF-8"?>
<svg xmlns="http://www.w3.org/2000/svg" id="Ebene_1" viewBox="0 0 851.51 773.49">
  <path d="m378.21,394.87c-10.67-10.67-16.66-25.14-16.66-40.23V56.89c0-31.42,25.46-56.89,56.89-56.89s56.89,25.48,56.89,56.89v240.85h240.85c31.42,0,56.89,25.47,56.89,56.89s-25.47,56.89-56.89,56.89h-297.74c-15.09,0-29.56-5.99-40.23-16.66h0Z" style="fill:#0f5f41;"></path>
  <path d="m324.33,400.04c0-15.09-5.99-29.56-16.67-40.23L97.13,149.28c-22.22-22.22-58.24-22.22-80.46,0-22.23,22.22-22.22,58.25,0,80.46l170.31,170.31L16.67,570.35c-22.22,22.22-22.22,58.24,0,80.46,22.22,22.22,58.24,22.22,80.46,0l210.54-210.54c10.67-10.67,16.67-25.14,16.67-40.23h-.01Z" style="fill:#ffe600;"></path>
  <path d="m584.08,773.49c-15.09,0-29.56-5.99-40.23-16.67l-210.54-210.54c-22.22-22.22-22.22-58.24,0-80.46,22.22-22.23,58.25-22.22,80.46,0l170.31,170.31,170.31-170.31c22.22-22.22,58.24-22.22,80.46,0,22.22,22.22,22.22,58.24,0,80.46l-210.54,210.54c-10.67,10.67-25.14,16.67-40.23,16.67h0Z" style="fill:#c3b487;"></path>
</svg>
