<?xml version="1.0" encoding="utf-8"?>
<!-- Generator: $$$/GeneralStr/196=Adobe Illustrator 27.6.0, SVG Export Plug-In . SVG Version: 6.00 Build 0)  -->
<svg version="1.1" id="Ebene_2_00000183957298935289964140000017381590435982940082_"
	 xmlns="http://www.w3.org/2000/svg" xmlns:xlink="http://www.w3.org/1999/xlink" x="0px" y="0px" viewBox="0 0 1278 415"
	 style="enable-background:new 0 0 1278 415;" xml:space="preserve">
<style type="text/css">
	.st0{fill:#FF0032;}
	.st1{fill:#FFE600;}
</style>
<g id="Logo">
	<path d="M510.6,55.8c14.1,0,22.3,9.3,22.3,21.5v21.9c0,12.2-8.2,21.5-22.3,21.5h-20.1V55.8H510.6z M501.6,110.1h9
		c7.1,0,11.2-4.6,11.2-10.9V77.3c0-6.5-4-11-11.2-11h-9L501.6,110.1L501.6,110.1z"/>
	<path d="M568.9,66.2v15.8h19.3v10.5h-19.3v17.6h24.8v10.5h-35.9V55.8h35.9v10.5H568.9z"/>
	<path d="M660.3,55.8v44.1c0,12.4-8.1,22.2-21.5,22.2s-21.5-9.8-21.5-22.2V55.8h11.1v44.2c0,6.6,3.7,11.6,10.4,11.6
		s10.4-5,10.4-11.6V55.8C649.2,55.8,660.3,55.8,660.3,55.8z"/>
	<path d="M723.6,66.2H708v54.4h-11.1V66.2h-15.7V55.8h42.4V66.2z"/>
	<path d="M771.8,74.7c0-6.4-4.7-9.8-9.5-9.8c-4.5,0-8.6,2.5-8.6,7.2s3.7,7.2,8.9,9.1l5.9,2.2c9.2,3.5,15.6,9.1,15.6,19.3
		c0,12.5-10.6,19.4-21.4,19.4s-21.6-7.4-21.6-21.1v-1.4h11.1v1.3c0,6.4,4.4,10.7,10.5,10.7c5.7,0,10.3-2.9,10.3-8.3
		s-4.4-7.8-9.4-9.7l-5.9-2.3c-9.9-3.9-15-9.2-15-18.6c0-10.8,8.2-18.4,19.7-18.4s20.4,8.4,20.4,19.8V76h-10.9L771.8,74.7L771.8,74.7
		z"/>
	<path d="M849.5,99.9c0,12.2-8.2,22.2-21.9,22.2s-21.7-10-21.7-22.2V76.5c0-12.2,8.1-22.2,21.6-22.2s21.6,9.8,21.6,22v0.4H838v-0.4
		c0-6.3-3.9-11.4-10.5-11.4s-10.5,5.2-10.5,11.7v23.4c0,6.5,3.7,11.7,10.5,11.7s10.7-5.2,10.7-11.6v-1.1h11.2
		C849.5,98.8,849.5,99.9,849.5,99.9z"/>
	<path d="M915.7,55.8v64.8h-11.1V92.6h-20.8v28.1h-11.1V55.8h11.1v26.3h20.8V55.8C904.6,55.8,915.7,55.8,915.7,55.8z"/>
	<path d="M953.3,66.2v15.8h19.3v10.5h-19.3v17.6h24.8v10.5h-35.9V55.8h35.9v10.5H953.3z"/>
	<path d="M1016.5,92.5h-3.3v28.1h-11.1V55.8h19c13.9,0,19.7,9.4,19.7,18.3c0,7.3-3.9,14.9-12.8,17.5l19.1,29h-13L1016.5,92.5
		L1016.5,92.5z M1013.3,82.1h7.9c5.4,0,8.5-3.1,8.5-7.9s-3-7.9-8.5-7.9h-7.9V82.1L1013.3,82.1z"/>
	<path d="M501.7,211.6h23.1v10.5h-34.3v-64.8h11.1V211.6z"/>
	<path d="M557.3,167.7v15.9h19.3v10.5h-19.3v17.6h24.8v10.5h-35.9v-64.8h35.9v10.5H557.3z"/>
	<path d="M617.3,157.2v64.8h-11.1v-64.8H617.3z"/>
	<path d="M685.6,201.4c0,12.2-8.2,22.1-21.9,22.1s-21.7-10-21.7-22.2v-23.4c0-12.2,8.1-22.1,21.6-22.1s21.6,9.8,21.6,22v0.4h-11.1
		v-0.4c0-6.3-3.9-11.4-10.5-11.4s-10.5,5.2-10.5,11.7v23.4c0,6.5,3.7,11.7,10.5,11.7s10.7-5.2,10.7-11.6v-1.1h11.2V201.4
		L685.6,201.4z"/>
	<path d="M751.9,157.2v64.8h-11.1V194h-20.8v28.1h-11.1v-64.8h11.1v26.3h20.8v-26.3H751.9z"/>
	<path d="M815.8,167.7h-15.6v54.4h-11.1v-54.4h-15.7v-10.5h42.4V167.7z"/>
	<path d="M861.7,208.4h-19.7l-3.8,13.7h-11.8l20-64.8h11l19.9,64.8h-11.7L861.7,208.4L861.7,208.4z M858.8,197.9l-6.9-24.5
		l-6.8,24.5H858.8L858.8,197.9z"/>
	<path d="M930.3,167.7h-15.6v54.4h-11.1v-54.4H888v-10.5h42.4V167.7z"/>
	<path d="M995,157.2v64.8h-11.1V194H963v28.1h-11.1v-64.8H963v26.3h20.8v-26.3H995z"/>
	<path d="M1032.5,211.6h23.1v10.5h-34.3v-64.8h11.1V211.6z"/>
	<path d="M1088.1,167.7v15.9h19.3v10.5h-19.3v17.6h24.8v10.5H1077v-64.8h35.9v10.5H1088.1z"/>
	<path d="M1174.5,167.7H1159v54.4h-11.1v-54.4h-15.7v-10.5h42.4V167.7z"/>
	<path d="M1207.2,157.2v64.8h-11.1v-64.8H1207.2z"/>
	<path d="M1250,193.8l-5.3,7.6v20.7h-11.1v-64.8h11.1v28.5l18.6-28.5h13l-19,28.1l20.6,36.7h-12.8L1250,193.8z"/>
	<path d="M535.5,258.7l-20,64.8h-10.9l-19.9-64.8h11.7l13.8,47.4l13.6-47.4L535.5,258.7L535.5,258.7z"/>
	<path d="M567.1,269.2V285h19.3v10.5h-19.3v17.6h24.8v10.5h-35.9v-64.8h35.9v10.5L567.1,269.2L567.1,269.2z"/>
	<path d="M630.3,295.4h-3.3v28.1h-11.1v-64.8h19c13.8,0,19.7,9.4,19.7,18.3c0,7.3-3.9,14.9-12.8,17.5l19.1,29h-13L630.3,295.4
		L630.3,295.4z M627.1,285h7.9c5.4,0,8.5-3.1,8.5-7.9s-3-7.9-8.5-7.9h-7.9V285L627.1,285z"/>
	<path d="M723.2,304.1c0,10.2-6.5,19.4-19.7,19.4h-23v-64.8h19.2c13.9,0,19.2,9,19.2,17.5c0,4.8-1.7,9.1-5.5,12
		C720,291.3,723.2,297.6,723.2,304.1z M691.7,269.1V285h7.5c5.5,0,8.5-3.1,8.5-7.9s-3-7.9-8.5-7.9L691.7,269.1L691.7,269.1z
		 M712,304.1c0-5.2-3.6-8.8-8.9-8.8h-11.4v17.8h11.4C708.4,313.1,712,309.8,712,304.1z"/>
	<path d="M775,309.9h-19.7l-3.8,13.7h-11.8l20-64.8h11l19.9,64.8h-11.7L775,309.9L775,309.9z M772,299.4l-6.9-24.5l-6.8,24.5H772
		L772,299.4z"/>
	<path d="M855.5,258.7v64.8h-10l-23.3-42.6v42.6h-11.1v-64.8h10.4l22.9,41.2v-41.2L855.5,258.7L855.5,258.7z"/>
	<path d="M901.9,258.7c14.1,0,22.3,9.3,22.3,21.5v21.9c0,12.2-8.2,21.5-22.3,21.5h-20.1v-64.8L901.9,258.7L901.9,258.7z
		 M892.9,313.1h9c7.1,0,11.2-4.6,11.2-10.9v-21.9c0-6.5-4-11-11.2-11h-9V313.1L892.9,313.1z"/>
	<path class="st0" d="M185.4,193.6c-5.2-5.2-8.2-12.3-8.2-19.7v-146c0-15.4,12.5-27.9,27.9-27.9C220.6,0,233,12.5,233,27.9V146
		h118.1c15.4,0,27.9,12.5,27.9,27.9s-12.5,27.9-27.9,27.9h-146C197.7,201.8,190.6,198.8,185.4,193.6L185.4,193.6z"/>
	<path d="M159,196.1c0-7.4-2.9-14.5-8.2-19.7L47.6,73.2c-10.9-10.9-28.5-10.9-39.5,0s-10.9,28.6,0,39.5l83.5,83.5L8.2,279.6
		c-10.9,10.9-10.9,28.5,0,39.5c10.9,10.9,28.6,10.9,39.5,0l103.2-103.2C156.1,210.6,159,203.5,159,196.1L159,196.1z"/>
	<path class="st1" d="M286.4,379.2c-7.4,0-14.5-2.9-19.7-8.2L163.4,267.8c-10.9-10.9-10.9-28.6,0-39.4s28.6-10.9,39.4,0l83.5,83.5
		l83.5-83.5c10.9-10.9,28.5-10.9,39.5,0c10.9,10.9,10.9,28.5,0,39.5L306.1,371C300.8,376.3,293.7,379.2,286.4,379.2L286.4,379.2z"/>
</g>
</svg>
